<svg xmlns="http://www.w3.org/2000/svg" viewBox="0 0 101 87.71"><defs><style>.cls-1{stroke:#0005ff;stroke-miterlimit:10;}</style></defs><title>modular-hero</title><g id="Layer_2" data-name="Layer 2"><g id="Layer_1-2" data-name="Layer 1"><path class="cls-1" d="M100.31,14.87,75.5.55a.39.39,0,0,0-.39,0L50.5,14.76,25.89.55a.39.39,0,0,0-.39,0L.69,14.87a.39.39,0,0,0-.19.34V72.5a.39.39,0,0,0,.19.33L25.5,87.15a.39.39,0,0,0,.39,0L50.5,72.94,75.11,87.15a.39.39,0,0,0,.39,0l24.81-14.32a.39.39,0,0,0,.19-.33V15.21A.39.39,0,0,0,100.31,14.87ZM24.92,29.53,1.27,43.18V15.88ZM50.5,15.66l24,13.87-24,13.88-24-13.88ZM25.69,30l24,13.87-24,13.88-24-13.88Zm.39,28.42,24-13.88V72.27l-24,13.88ZM50.89,44.52l24,13.88V86.15l-24-13.88ZM75.31,57.73l-24-13.88L75.31,30l24,13.87Zm.77-28.2L99.73,15.88v27.3Zm-.77-28.2,24,13.88-24,13.87-24-13.87Zm-49.62,0,24,13.88-24,13.87-24-13.87ZM1.27,44.52l24,13.88V86.15l-24-13.88ZM75.69,86.15V58.4l24-13.88V72.27Z"/></g></g></svg>